<svg width="19" height="12" viewBox="0 0 19 12" fill="none" xmlns="http://www.w3.org/2000/svg">
<path d="M10.2994 3C10.2994 2.44772 10.7471 2 11.2994 2H12.2994C12.8517 2 13.2994 2.44772 13.2994 3V11C13.2994 11.5523 12.8517 12 12.2994 12H11.2994C10.7471 12 10.2994 11.5523 10.2994 11V3Z" fill="black"/>
<path d="M15.2994 1C15.2994 0.447715 15.7471 0 16.2994 0H17.2994C17.8517 0 18.2994 0.447715 18.2994 1V11C18.2994 11.5523 17.8517 12 17.2994 12H16.2994C15.7471 12 15.2994 11.5523 15.2994 11V1Z" fill="black"/>
<path d="M5.2994 6.5C5.2994 5.94772 5.74712 5.5 6.2994 5.5H7.2994C7.85169 5.5 8.2994 5.94772 8.2994 6.5V11C8.2994 11.5523 7.85169 12 7.2994 12H6.2994C5.74712 12 5.2994 11.5523 5.2994 11V6.5Z" fill="black"/>
<path d="M0.299404 9C0.299404 8.44772 0.747119 8 1.2994 8H2.2994C2.85169 8 3.2994 8.44772 3.2994 9V11C3.2994 11.5523 2.85169 12 2.2994 12H1.2994C0.747119 12 0.299404 11.5523 0.299404 11V9Z" fill="black"/>
</svg>
