<svg width="19" height="18" viewBox="0 0 19 18" fill="none" xmlns="http://www.w3.org/2000/svg">
<rect x="0.806519" y="0.12915" width="17.6837" height="17.3364" stroke="#FF4545"/>
<path fill-rule="evenodd" clip-rule="evenodd" d="M9.64838 17.4656C4.76515 17.4656 0.806519 13.5847 0.806519 8.79735C0.806519 4.01004 4.76515 0.12915 9.64838 0.12915C14.5316 0.12915 18.4902 4.01004 18.4902 8.79735C18.4902 13.5847 14.5316 17.4656 9.64838 17.4656ZM9.64838 15.2985C13.3108 15.2985 16.2798 12.3878 16.2798 8.79735C16.2798 5.20687 13.3108 2.2962 9.64838 2.2962C5.98596 2.2962 3.01698 5.20687 3.01698 8.79735C3.01698 12.3878 5.98596 15.2985 9.64838 15.2985ZM8.54641 9.87909H12.9673V7.71204H10.7576V4.46146H8.54641V9.87909Z" fill="#FF4545"/>
</svg>
