<svg width="19" height="18" viewBox="0 0 19 18" fill="none" xmlns="http://www.w3.org/2000/svg">
<rect x="0.806641" y="0.12912" width="17.6837" height="17.3364" stroke="#FF4545"/>
<path fill-rule="evenodd" clip-rule="evenodd" d="M9.6485 17.4655C4.76528 17.4655 0.806641 13.5846 0.806641 8.79732C0.806641 4.01001 4.76528 0.12912 9.6485 0.12912C14.5317 0.12912 18.4904 4.01001 18.4904 8.79732C18.4904 13.5846 14.5317 17.4655 9.6485 17.4655ZM9.6485 15.2985C13.3109 15.2985 16.2799 12.3878 16.2799 8.79732C16.2799 5.20684 13.3109 2.29617 9.6485 2.29617C5.98608 2.29617 3.01711 5.20684 3.01711 8.79732C3.01711 12.3878 5.98608 15.2985 9.6485 15.2985ZM8.54654 9.87906H12.9675V7.71201H10.7577V4.46143H8.54654V9.87906Z" fill="#FF4545"/>
</svg>
