<svg width="18" height="20" viewBox="0 0 18 20" fill="none" xmlns="http://www.w3.org/2000/svg">
<rect x="0.00012207" y="-3.05176e-05" width="17.1613" height="19.6129" stroke="#FF4545"/>
<path fill-rule="evenodd" clip-rule="evenodd" d="M2.14532 2.45157H15.0163C15.8061 2.45157 16.4464 3.18332 16.4464 4.08598V15.5268C16.4464 16.4295 15.8061 17.1612 15.0163 17.1612H2.14532C1.35549 17.1612 0.71521 16.4295 0.71521 15.5268V4.08598C0.71521 3.18332 1.35549 2.45157 2.14532 2.45157ZM2.14532 4.08598V15.5268H15.0163V4.08598H2.14532ZM5.00553 13.8924H6.43564V8.9892H5.00553V13.8924ZM9.29586 13.8924H7.86575V5.72039H9.29586V13.8924ZM10.726 13.8924H12.1561V8.172H10.726V13.8924Z" fill="#FF4545"/>
</svg>
