<svg width="38" height="38" viewBox="0 0 38 38" fill="none" xmlns="http://www.w3.org/2000/svg">
<path fill-rule="evenodd" clip-rule="evenodd" d="M25.9091 13.8182C25.9091 15.6506 25.1812 17.4079 23.8855 18.7036C22.5898 19.9993 20.8324 20.7273 19 20.7273C17.1676 20.7273 15.4103 19.9993 14.1146 18.7036C12.8189 17.4079 12.0909 15.6506 12.0909 13.8182C12.0909 11.9858 12.8189 10.2284 14.1146 8.93271C15.4103 7.637 17.1676 6.90908 19 6.90908C20.8324 6.90908 22.5898 7.637 23.8855 8.93271C25.1812 10.2284 25.9091 11.9858 25.9091 13.8182ZM22.4546 13.8182C22.4546 14.7344 22.0906 15.6131 21.4428 16.2609C20.7949 16.9088 19.9162 17.2727 19 17.2727C18.0838 17.2727 17.2052 16.9088 16.5573 16.2609C15.9094 15.6131 15.5455 14.7344 15.5455 13.8182C15.5455 12.902 15.9094 12.0233 16.5573 11.3754C17.2052 10.7276 18.0838 10.3636 19 10.3636C19.9162 10.3636 20.7949 10.7276 21.4428 11.3754C22.0906 12.0233 22.4546 12.902 22.4546 13.8182Z" fill="white"/>
<path fill-rule="evenodd" clip-rule="evenodd" d="M19 0C8.50682 0 0 8.50682 0 19C0 29.4932 8.50682 38 19 38C29.4932 38 38 29.4932 38 19C38 8.50682 29.4932 0 19 0ZM3.45455 19C3.45455 22.61 4.68609 25.9333 6.75018 28.5725C8.19976 26.6689 10.0698 25.1262 12.2143 24.0649C14.3588 23.0036 16.7196 22.4525 19.1123 22.4545C21.474 22.4523 23.8051 22.9892 25.928 24.0243C28.0508 25.0593 29.9094 26.5653 31.3621 28.4275C32.8587 26.4646 33.8664 24.1736 34.3017 21.7439C34.7371 19.3143 34.5877 16.8159 33.8658 14.4555C33.1439 12.0951 31.8703 9.94054 30.1504 8.17006C28.4305 6.39959 26.3137 5.06412 23.9752 4.27415C21.6367 3.48418 19.1437 3.26242 16.7025 3.62723C14.2613 3.99203 11.942 4.9329 9.9366 6.372C7.9312 7.8111 6.29731 9.70705 5.17012 11.903C4.04294 14.0989 3.45486 16.5317 3.45455 19ZM19 34.5455C15.4314 34.5508 11.9705 33.3231 9.20291 31.0702C10.3169 29.4755 11.7996 28.1734 13.5249 27.2748C15.2502 26.3762 17.167 25.9077 19.1123 25.9091C21.0333 25.9076 22.9269 26.3644 24.636 27.2416C26.345 28.1187 27.8201 29.391 28.9387 30.9527C26.1497 33.2789 22.6317 34.5505 19 34.5455Z" fill="white"/>
</svg>
