<svg width="18" height="21" viewBox="0 0 18 21" fill="none" xmlns="http://www.w3.org/2000/svg">
<path fill-rule="evenodd" clip-rule="evenodd" d="M11.3164 15.1695C10.1529 16.093 8.74254 16.6337 7.22253 16.6337C3.23364 16.6337 0 12.9101 0 8.31685C0 3.72358 3.23364 0 7.22253 0C11.2114 0 14.4451 3.72358 14.4451 8.31685C14.4451 10.0672 13.9755 11.6912 13.1736 13.031L18 18.5888L16.1429 20.7273L11.3164 15.1695ZM7.22253 13.6093C9.76092 13.6093 11.8187 11.2398 11.8187 8.31679C11.8187 5.3938 9.76092 3.02424 7.22253 3.02424C4.68414 3.02424 2.62637 5.3938 2.62637 8.31679C2.62637 11.2398 4.68414 13.6093 7.22253 13.6093Z" fill="#EC4D4D" fill-opacity="0.5"/>
</svg>
