<svg width="30" height="34" viewBox="0 0 30 34" fill="none" xmlns="http://www.w3.org/2000/svg">
<path d="M29.6316 0V33.1429H4.77445C3.67569 33.1429 2.62194 32.7064 1.84501 31.9294C1.06807 31.1525 0.631592 30.0988 0.631592 29V4.14286C0.631592 3.0441 1.06807 1.99035 1.84501 1.21341C2.62194 0.436478 3.67569 0 4.77445 0H29.6316Z" fill="white" stroke="black" stroke-width="3" stroke-linecap="round" stroke-linejoin="round"/>
<path d="M29.6316 24.8571H4.77445C3.67569 24.8571 2.62194 25.2936 1.84501 26.0705C1.06807 26.8475 0.631592 27.9012 0.631592 29M8.91731 8.28571H21.3459H8.91731Z" fill="white"/>
<path d="M29.6316 24.8571H4.77445C3.67569 24.8571 2.62194 25.2936 1.84501 26.0705C1.06807 26.8475 0.631592 27.9012 0.631592 29M8.91731 8.28571H21.3459" stroke="black" stroke-width="3" stroke-linecap="round" stroke-linejoin="round"/>
</svg>
