<svg width="33" height="32" viewBox="0 0 33 32" fill="none" xmlns="http://www.w3.org/2000/svg">
<path d="M0.631592 7.11111V3.55556C0.631592 2.61256 1.00619 1.70819 1.67299 1.0414C2.33979 0.374602 3.24416 0 4.18715 0H7.7427M25.5205 0H29.076C30.019 0 30.9234 0.374602 31.5902 1.0414C32.257 1.70819 32.6316 2.61256 32.6316 3.55556V7.11111M32.6316 24.8889V28.4444C32.6316 29.3874 32.257 30.2918 31.5902 30.9586C30.9234 31.6254 30.019 32 29.076 32H25.5205M7.7427 32H4.18715C3.24416 32 2.33979 31.6254 1.67299 30.9586C1.00619 30.2918 0.631592 29.3874 0.631592 28.4444V24.8889M9.52048 19.5556C9.52048 19.5556 12.1871 23.1111 16.6316 23.1111C21.076 23.1111 23.7427 19.5556 23.7427 19.5556M11.2983 10.6667H11.316H11.2983ZM21.9649 10.6667H21.9827H21.9649Z" fill="white"/>
<path d="M0.631592 7.11111V3.55556C0.631592 2.61256 1.00619 1.70819 1.67299 1.0414C2.33979 0.374602 3.24416 0 4.18715 0H7.7427M25.5205 0H29.076C30.019 0 30.9234 0.374602 31.5902 1.0414C32.257 1.70819 32.6316 2.61256 32.6316 3.55556V7.11111M32.6316 24.8889V28.4444C32.6316 29.3874 32.257 30.2918 31.5902 30.9586C30.9234 31.6254 30.019 32 29.076 32H25.5205M7.7427 32H4.18715C3.24416 32 2.33979 31.6254 1.67299 30.9586C1.00619 30.2918 0.631592 29.3874 0.631592 28.4444V24.8889M9.52048 19.5556C9.52048 19.5556 12.1871 23.1111 16.6316 23.1111C21.076 23.1111 23.7427 19.5556 23.7427 19.5556M11.2983 10.6667H11.316M21.9649 10.6667H21.9827" stroke="black" stroke-width="3" stroke-linecap="round" stroke-linejoin="round"/>
</svg>
