<svg width="18" height="12" viewBox="0 0 18 12" fill="none" xmlns="http://www.w3.org/2000/svg">
<path fill-rule="evenodd" clip-rule="evenodd" d="M8.7999 2.58753C11.2665 2.58764 13.6387 3.55505 15.4263 5.28982C15.5609 5.42375 15.7761 5.42206 15.9087 5.28603L17.1954 3.96045C17.2626 3.89146 17.3 3.798 17.2994 3.70076C17.2989 3.60353 17.2604 3.51052 17.1925 3.44234C12.5006 -1.14745 5.09852 -1.14745 0.406601 3.44234C0.338636 3.51047 0.300073 3.60345 0.299446 3.70069C0.29882 3.79792 0.336181 3.89141 0.403262 3.96045L1.6904 5.28603C1.82289 5.42226 2.03822 5.42396 2.17275 5.28982C3.96059 3.55494 6.33311 2.58752 8.7999 2.58753ZM8.83535 6.58938C10.1906 6.58929 11.4974 7.10346 12.502 8.03199C12.6378 8.16376 12.8519 8.16091 12.9843 8.02555L14.2696 6.69997C14.3373 6.63044 14.3748 6.53611 14.3739 6.4381C14.3729 6.34008 14.3335 6.24656 14.2644 6.17844C11.2053 3.27385 6.46796 3.27385 3.40889 6.17844C3.33979 6.24656 3.30036 6.34013 3.29945 6.43817C3.29855 6.53622 3.33623 6.63054 3.40406 6.69997L4.68897 8.02555C4.82142 8.16091 5.03546 8.16376 5.17133 8.03199C6.17522 7.10408 7.48103 6.58995 8.83535 6.58938ZM11.449 9.17672C11.451 9.27501 11.4131 9.36977 11.3444 9.43863L9.12109 11.7289C9.05592 11.7962 8.96706 11.834 8.87435 11.834C8.78163 11.834 8.69278 11.7962 8.62761 11.7289L6.40396 9.43863C6.33527 9.36972 6.29748 9.27492 6.29952 9.17663C6.30155 9.07834 6.34324 8.98527 6.41472 8.91938C7.83459 7.69354 9.91411 7.69354 11.334 8.91938C11.4054 8.98532 11.447 9.07843 11.449 9.17672Z" fill="white"/>
</svg>
